# xmcd
#
# Track frame offsets: 
#        150
#        11145
#        28374
#        52231
#        63717
#        75738
#        88468
#        101965
#        114428
#        129582
#        152843
#        167097
#        184222
#        198824
#        219178
#
# Disc length: 3089 seconds
#
# Revision: 2
# Processed by: cddbd v1.5.2PL0 Copyright (c) Steve Scherf et al.
# Submitted via: ExactAudioCopy v1.0b6
#
DISCID=dd0c0f0f
DTITLE=Blues - Chrisly Records - Hot Blues
DYEAR=1997
DGENRE=Blues
TTITLE0=Little Willie Littlefield - 12th Street and Vine
TTITLE1=Louisiana Red - Backwater Blues 
TTITLE2=The Big Four Blues Band - Too Poor to Die 
TTITLE3=Floyd McDaniel and Erwin Helfer - The Viper Song 
TTITLE4=Angela Brown - Buggy Ride 
TTITLE5=Gene "Mighty Flee"Connors - Cleanhead Blues 
TTITLE6=The Chicago Allstars - Sweet Home Chicago 
TTITLE7=Errol Dixon - Lonesome Road 
TTITLE8=The Creole Zydeco Farmers - Stay a Little Longer 
TTITLE9=Carey Bell and Louisiana Red - When a Woman Gets in Trouble 
TTITLE10="Detroit" Gary Wiggins and CC - The Boogie Man 
TTITLE11=Angela Brown - Woman Be Wise 
TTITLE12=Little Willie Littlefield - One Scotch, One Bourbon, One Beer
TTITLE12=
TTITLE13=Errol Dixon - A Closer Walk with Thee 
TTITLE14=The Creole Zydeco Farmers - Zydeco Boogaloo 
EXTD=
EXTT0=
EXTT1=
EXTT2=
EXTT3=
EXTT4=
EXTT5=
EXTT6=
EXTT7=
EXTT8=
EXTT9=
EXTT10=
EXTT11=
EXTT12=
EXTT13=
EXTT14=
PLAYORDER=
